Coordinates
version=1
nRows=40
nColumns=30
inDegrees=yes

Units are S.I. units (second, meters, Newtons, ...)
Angles are in degrees.

endheader
time	floatyaw	floatroll	floatpitch	floatx	floaty	floatz	pro_sup_l	deviation_l	flexion_l	cmc_flexion_l	cmc_abduction_l	mp_flexion_l	ip_flexion_l	2mcp_flexion_l	2mcp_abduction_l	2pm_flexion_l	2md_flexion_l	3mcp_flexion_l	3mcp_abduction_l	3pm_flexion_l	3md_flexion_l	4mcp_flexion_l	4mcp_abduction_l	4pm_flexion_l	4md_flexion_l	5mcp_flexion_l	5mcp_abduction_l	5pm_flexion_l	5md_flexion_l
-1.495000	-0.845308	-4.283240	94.249796	-0.006974	-0.268479	-0.001482	89.833071	-0.541578	-1.954603	26.811111	2.722888	-18.551145	-33.156776	18.290613	5.187880	33.780734	20.818097	8.248843	3.837071	35.923095	21.319085	-1.633502	-3.220019	52.872318	33.287770	-20.179627	-8.788917	60.178860	49.521710
-1.485000	-0.845308	-4.283240	94.249796	-0.006979	-0.268456	-0.001477	89.857446	-0.531343	-1.944415	26.783687	2.669782	-18.532592	-33.107124	18.292023	5.167824	33.772515	20.786549	8.251492	3.844356	35.909216	21.291575	-1.640394	-3.229732	52.904504	33.238592	-20.222679	-8.809750	60.248640	49.453084
-1.475000	-0.845308	-4.283240	94.249796	-0.007000	-0.268438	-0.001460	89.868920	-0.528087	-1.930759	26.743042	2.620587	-18.525886	-33.038231	18.305531	5.144207	33.733149	20.747209	8.258020	3.850391	35.866110	21.264540	-1.652965	-3.236709	52.913212	33.191890	-20.259730	-8.819679	60.270519	49.391999
-1.465000	-0.845308	-4.283240	94.249796	-0.007033	-0.268428	-0.001433	89.864631	-0.532977	-1.915946	26.694113	2.590479	-18.528849	-32.962862	18.323147	5.121219	33.675823	20.711725	8.267098	3.855557	35.801329	21.242781	-1.669821	-3.240028	52.898459	33.157173	-20.282563	-8.814762	60.237025	49.348363
-1.455000	-0.845308	-4.283240	94.249796	-0.007073	-0.268429	-0.001401	89.844547	-0.545423	-1.902848	26.644860	2.588709	-18.538092	-32.895979	18.337703	5.101653	33.613353	20.689850	8.277995	3.859920	35.724465	21.230053	-1.687198	-3.238641	52.861665	33.140338	-20.288001	-8.795005	60.151165	49.334369
-1.445000	-0.845308	-4.283240	94.249796	-0.007116	-0.268444	-0.001368	89.812212	-0.563184	-1.894366	26.605077	2.614542	-18.551201	-32.850322	18.346467	5.086417	33.553195	20.685759	8.292332	3.862847	35.642647	21.226963	-1.699494	-3.232046	52.804638	33.141737	-20.278256	-8.764079	60.029432	49.357912
-1.435000	-0.845308	-4.283240	94.249796	-0.007160	-0.268472	-0.001337	89.773686	-0.583205	-1.892887	26.582939	2.658000	-18.567326	-32.831763	18.353220	5.074754	33.494943	20.695833	8.314673	3.863023	35.557631	21.229130	-1.700660	-3.221155	52.728652	33.156938	-20.258440	-8.727155	59.897209	49.416804
-1.425000	-0.845308	-4.283240	94.249796	-0.007205	-0.268512	-0.001306	89.735366	-0.602670	-1.899712	26.581437	2.704470	-18.585875	-32.837540	18.366962	5.064997	33.431972	20.709541	8.350933	3.859007	35.466567	21.227575	-1.686312	-3.208512	52.634896	33.179569	-20.232977	-8.688379	59.778652	49.497692
-1.415000	-0.845308	-4.283240	94.249796	-0.007252	-0.268561	-0.001276	89.702384	-0.619611	-1.914573	26.597382	2.739967	-18.604543	-32.859189	18.396933	5.055478	33.357038	20.713703	8.405115	3.850124	35.366157	21.212121	-1.655733	-3.197387	52.526606	33.204421	-20.203128	-8.649771	59.687031	49.580762
-1.405000	-0.845308	-4.283240	94.249796	-0.007300	-0.268613	-0.001245	89.678345	-0.632841	-1.935488	26.623737	2.754750	-18.618803	-32.888220	18.446606	5.045209	33.268614	20.698404	8.476245	3.837200	35.257435	21.176568	-1.612689	-3.190178	52.411511	33.229181	-20.167230	-8.612149	59.621561	49.647819
-1.395000	-0.845308	-4.283240	94.249796	-0.007345	-0.268662	-0.001214	89.665546	-0.641665	-1.959205	26.653475	2.745464	-18.624164	-32.920508	18.510926	5.034158	33.173526	20.661578	8.557627	3.822684	35.147661	21.122762	-1.564168	-3.187211	52.301921	33.254113	-20.123565	-8.576995	59.572307	49.689316
-1.385000	-0.845308	-4.283240	94.249796	-0.007383	-0.268701	-0.001185	89.664622	-0.645945	-1.982265	26.682344	2.716514	-18.620022	-32.956818	18.578910	5.023237	33.084027	20.609900	8.639086	3.810021	35.047908	21.060873	-1.517114	-3.186821	52.210888	33.280215	-20.073553	-8.547307	59.529008	49.706600
-1.375000	-0.845308	-4.283240	94.249796	-0.007410	-0.268727	-0.001159	89.673822	-0.646468	-2.002173	26.709223	2.679629	-18.611741	-32.999999	18.639281	5.014118	33.011831	20.555996	8.710692	3.802491	34.968133	21.005514	-1.475106	-3.186705	52.146316	33.307250	-20.022578	-8.526442	59.487578	49.708622
-1.365000	-0.845308	-4.283240	94.249796	-0.007427	-0.268741	-0.001135	89.689060	-0.645002	-2.017919	26.734377	2.649845	-18.608301	-33.051190	18.684607	5.008832	32.963436	20.513993	8.765543	3.801916	34.913155	20.970045	-1.437762	-3.185671	52.107467	33.333093	-19.977887	-8.515828	59.450792	49.705507
-1.355000	-0.845308	-4.283240	94.249796	-0.007433	-0.268745	-0.001111	89.705275	-0.643601	-2.029474	26.757052	2.638492	-18.616361	-33.107341	18.711643	5.009033	32.939137	20.495401	8.800402	3.807771	34.881749	20.962090	-1.403795	-3.184543	52.087085	33.354678	-19.945467	-8.513548	59.424312	49.702819
-1.345000	-0.845308	-4.283240	94.249796	-0.007433	-0.268744	-0.001088	89.718328	-0.643484	-2.036829	26.774134	2.647055	-18.634963	-33.161477	18.719431	5.015120	32.935027	20.506109	8.814920	3.817217	34.868723	20.981915	-1.375315	-3.185620	52.077785	33.369559	-19.928185	-8.515175	59.411832	49.699404
-1.335000	-0.845308	-4.283240	94.249796	-0.007430	-0.268741	-0.001068	89.726193	-0.644379	-2.039655	26.781163	2.666401	-18.655098	-33.206021	18.708228	5.025793	32.945743	20.544747	8.810918	3.826255	34.868142	21.023525	-1.359268	-3.191092	52.077698	33.376814	-19.925900	-8.516519	59.412717	49.689269
-1.325000	-0.845308	-4.283240	94.249796	-0.007424	-0.268740	-0.001054	89.728755	-0.644997	-2.038147	26.775478	2.682925	-18.665021	-33.237641	18.680781	5.038622	32.966097	20.602942	8.792469	3.831669	34.875679	21.077376	-1.363774	-3.201516	52.090668	33.376987	-19.936430	-8.516328	59.423095	49.665832
-1.315000	-0.845308	-4.283240	94.249796	-0.007415	-0.268743	-0.001049	89.726545	-0.644399	-2.034363	26.759331	2.688488	-18.657999	-33.260222	18.644570	5.051439	32.991177	20.668034	8.766240	3.832736	34.889092	21.133571	-1.391443	-3.215316	52.120855	33.371804	-19.955906	-8.516901	59.438874	49.626103
-1.305000	-0.845308	-4.283240	94.249796	-0.007403	-0.268753	-0.001052	89.719425	-0.643190	-2.032500	26.740173	2.687490	-18.637120	-33.282865	18.611860	5.063566	33.016086	20.727702	8.740607	3.831485	34.907471	21.184670	-1.435074	-3.229569	52.166575	33.364293	-19.978565	-8.522057	59.458386	49.572759
-1.295000	-0.845308	-4.283240	94.249796	-0.007387	-0.268772	-0.001059	89.706294	-0.643465	-2.037073	26.727198	2.695202	-18.613579	-33.313388	18.595518	5.075899	33.036802	20.774482	8.722655	3.831172	34.930624	21.227386	-1.480190	-3.241467	52.219105	33.358849	-19.997758	-8.534006	59.483412	49.513171
-1.285000	-0.845308	-4.283240	94.249796	-0.007366	-0.268799	-0.001064	89.686007	-0.647482	-2.049831	26.726073	2.727416	-18.599467	-33.351713	18.602231	5.089737	33.051997	20.807618	8.714298	3.833960	34.959056	21.262555	-1.513541	-3.249528	52.267632	33.360154	-20.009355	-8.551585	59.518386	49.455963
-1.275000	-0.845308	-4.283240	94.249796	-0.007343	-0.268830	-0.001068	89.658631	-0.656080	-2.067613	26.735196	2.788468	-18.599990	-33.388085	18.627921	5.105215	33.063780	20.831331	8.710391	3.839471	34.993771	21.293561	-1.531534	-3.253922	52.306023	33.370876	-20.015876	-8.571223	59.567946	49.406939
-1.265000	-0.845308	-4.283240	94.249796	-0.007319	-0.268856	-0.001071	89.626044	-0.668038	-2.083098	26.745930	2.866471	-18.610477	-33.407681	18.659193	5.120496	33.075932	20.851143	8.700863	3.845180	35.035198	21.324400	-1.542132	-3.255934	52.335721	33.389614	-20.027406	-8.589856	59.633411	49.366315
-1.255000	-0.845308	-4.283240	94.249796	-0.007297	-0.268869	-0.001075	89.592005	-0.680698	-2.088502	26.747308	2.938937	-18.620241	-33.399056	18.680456	5.132423	33.090615	20.870770	8.676399	3.848335	35.081630	21.358239	-1.558299	-3.256994	52.362561	33.410718	-20.056434	-8.607480	59.709690	49.328601
-1.245000	-0.845308	-4.283240	94.249796	-0.007281	-0.268869	-0.001082	89.562387	-0.691252	-2.080232	26.733229	2.984140	-18.620693	-33.361576	18.682440	5.138312	33.106166	20.890682	8.634759	3.848066	35.128282	21.396043	-1.587151	-3.257718	52.390066	33.426327	-20.108387	-8.627385	59.784665	49.285724
-1.235000	-0.845308	-4.283240	94.249796	-0.007272	-0.268856	-0.001087	89.545111	-0.697821	-2.061437	26.707713	2.990425	-18.612010	-33.307233	18.666949	5.137598	33.117663	20.907887	8.583871	3.846168	35.167835	21.434874	-1.622682	-3.257451	52.414456	33.429564	-20.174532	-8.653719	59.842051	49.232724
-1.225000	-0.845308	-4.283240	94.249796	-0.007273	-0.268837	-0.001082	89.548122	-0.699930	-2.040437	26.683779	2.959106	-18.603496	-33.255045	18.645163	5.132109	33.119743	20.916695	8.539141	3.845971	35.192624	21.467106	-1.647981	-3.254552	52.425342	33.417425	-20.233763	-8.687865	59.866763	49.173203
-1.215000	-0.845308	-4.283240	94.249796	-0.007283	-0.268818	-0.001062	89.575010	-0.698452	-2.025822	26.675625	2.901893	-18.607394	-33.220769	18.630948	5.124840	33.109526	20.910861	8.515967	3.850031	35.197622	21.482544	-1.645948	-3.247350	52.411881	33.392228	-20.263447	-8.726080	59.850146	49.120619
-1.205000	-0.845308	-4.283240	94.249796	-0.007300	-0.268801	-0.001027	89.620819	-0.695205	-2.021552	26.689284	2.835926	-18.630704	-33.208453	18.633508	5.118202	33.087680	20.886969	8.521790	3.858225	35.182659	21.473472	-1.611077	-3.235205	52.370186	33.361130	-20.252310	-8.760195	59.792444	49.093620
-1.195000	-0.845308	-4.283240	94.249796	-0.007321	-0.268786	-0.000987	89.671819	-0.692328	-2.025246	26.718604	2.778240	-18.670581	-33.209860	18.653296	5.112870	33.057486	20.847387	8.552250	3.867474	35.152716	21.439758	-1.554512	-3.219038	52.307355	33.333965	-20.206922	-8.781137	59.701625	49.107874
-1.185000	-0.845308	-4.283240	94.249796	-0.007343	-0.268774	-0.000953	89.710632	-0.691571	-2.030394	26.749239	2.740550	-18.715817	-33.212304	18.682464	5.107772	33.023345	20.800600	8.593180	3.873158	35.116299	21.390390	-1.499777	-3.200998	52.240034	33.320116	-20.148083	-8.783111	59.589874	49.169185
-1.175000	-0.845308	-4.283240	94.249796	-0.007363	-0.268766	-0.000932	89.724119	-0.693751	-2.030626	26.767418	2.726075	-18.752881	-33.208815	18.709003	5.101018	32.989894	20.757984	8.627154	3.871336	35.082661	21.339909	-1.472038	-3.183563	52.188399	33.325380	-20.099725	-8.765897	59.470246	49.271018
-1.165000	-0.845308	-4.283240	94.249796	-0.007379	-0.268766	-0.000924	89.709448	-0.698513	-2.023423	26.767583	2.730228	-18.772807	-33.202858	18.722758	5.091265	32.961497	20.728428	8.641553	3.860597	35.058733	21.301508	-1.486101	-3.168704	52.167982	33.349683	-20.076535	-8.734153	59.355148	49.396362
-1.155000	-0.845308	-4.283240	94.249796	-0.007391	-0.268774	-0.000926	89.675038	-0.704313	-2.011418	26.754755	2.744778	-18.775255	-33.204606	18.720754	5.078815	32.941439	20.713880	8.634489	3.842700	35.046878	21.280768	-1.538382	-3.157568	52.182669	33.386499	-20.076560	-8.694561	59.256387	49.522423
-1.145000	-0.845308	-4.283240	94.249796	-0.007400	-0.268790	-0.000930	89.636173	-0.708577	-2.000800	26.741115	2.762666	-18.767808	-33.222466	18.708780	5.065867	32.931171	20.708665	8.615238	3.821714	35.044888	21.273782	-1.607034	-3.150722	52.222595	33.424611	-20.082559	-8.652783	59.185075	49.626960
-1.135000	-0.845308	-4.283240	94.249796	-0.007403	-0.268809	-0.000936	89.607720	-0.708270	-1.997716	26.739165	2.780655	-18.761111	-33.256405	18.697532	5.055738	32.930636	20.703186	8.598196	3.802171	35.048836	21.270838	-1.661445	-3.148563	52.268996	33.452054	-20.071633	-8.611946	59.149933	49.694727
-1.125000	-0.845308	-4.283240	94.249796	-0.007399	-0.268824	-0.000950	89.597568	-0.701122	-2.004704	26.755083	2.799128	-18.762746	-33.297302	18.695223	5.051470	32.939645	20.689868	8.593465	3.787298	35.057117	21.263343	-1.677094	-3.151485	52.303839	33.460816	-20.028181	-8.573184	59.154139	49.721388
-1.115000	-0.845308	-4.283240	94.249796	-0.007389	-0.268830	-0.000979	89.603998	-0.687074	-2.019274	26.785529	2.820093	-18.773361	-33.331766	18.701771	5.054588	32.958648	20.667666	8.600166	3.778223	35.072361	21.249394	-1.647470	-3.159607	52.318270	33.450046	-19.952845	-8.537380	59.192484	49.712686
-1.105000	-0.845308	-4.283240	94.249796	-0.007372	-0.268827	-0.001024	89.618110	-0.668821	-2.035438	26.819209	2.844876	-18.787040	-33.348301	18.709058	5.064649	32.987514	20.642412	8.607178	3.774312	35.099324	21.234426	-1.585999	-3.172259	52.314746	33.426177	-19.862386	-8.506609	59.251348	49.679448
